<mxfile host="app.diagrams.net" modified="2023-07-05T15:02:47.401Z" agent="Mozilla/5.0 (Windows NT 10.0; Win64; x64) AppleWebKit/537.36 (KHTML, like Gecko) Chrome/114.0.0.0 Safari/537.36" etag="xwa-gBkRDzqcnC9O8J3p" version="21.5.0" type="device">
  <diagram name="Page-1" id="1Fe4Botv84RnvPNcQsSY">
    <mxGraphModel dx="2627" dy="1025" grid="1" gridSize="10" guides="1" tooltips="1" connect="1" arrows="1" fold="1" page="1" pageScale="1" pageWidth="850" pageHeight="1100" math="0" shadow="0">
      <root>
        <mxCell id="0" />
        <mxCell id="1" parent="0" />
        <mxCell id="jDWw7P72Rg6iwjJru3dq-1" value="" style="endArrow=none;html=1;rounded=0;" parent="1" edge="1">
          <mxGeometry width="50" height="50" relative="1" as="geometry">
            <mxPoint x="-220" y="683.5" as="sourcePoint" />
            <mxPoint x="-220" y="320" as="targetPoint" />
          </mxGeometry>
        </mxCell>
        <mxCell id="jDWw7P72Rg6iwjJru3dq-2" value="" style="endArrow=none;html=1;rounded=0;" parent="1" edge="1">
          <mxGeometry width="50" height="50" relative="1" as="geometry">
            <mxPoint x="-220" y="683.5" as="sourcePoint" />
            <mxPoint x="-140" y="683.5" as="targetPoint" />
          </mxGeometry>
        </mxCell>
        <mxCell id="jDWw7P72Rg6iwjJru3dq-3" value="" style="endArrow=none;html=1;rounded=0;" parent="1" edge="1">
          <mxGeometry width="50" height="50" relative="1" as="geometry">
            <mxPoint x="-140" y="683.5" as="sourcePoint" />
            <mxPoint x="-140" y="320" as="targetPoint" />
          </mxGeometry>
        </mxCell>
        <mxCell id="jDWw7P72Rg6iwjJru3dq-5" value="&lt;font style=&quot;font-size: 18px;&quot;&gt;empty&amp;nbsp; stack&lt;/font&gt;" style="text;html=1;strokeColor=none;fillColor=none;align=center;verticalAlign=middle;whiteSpace=wrap;rounded=0;" parent="1" vertex="1">
          <mxGeometry x="-310" y="494" width="90" height="80" as="geometry" />
        </mxCell>
        <mxCell id="jDWw7P72Rg6iwjJru3dq-123" value="" style="endArrow=none;html=1;rounded=0;" parent="1" edge="1">
          <mxGeometry width="50" height="50" relative="1" as="geometry">
            <mxPoint x="-20" y="681.22" as="sourcePoint" />
            <mxPoint x="-20" y="320" as="targetPoint" />
          </mxGeometry>
        </mxCell>
        <mxCell id="jDWw7P72Rg6iwjJru3dq-124" value="" style="endArrow=none;html=1;rounded=0;" parent="1" edge="1">
          <mxGeometry width="50" height="50" relative="1" as="geometry">
            <mxPoint x="-20" y="640.72" as="sourcePoint" />
            <mxPoint x="60" y="640.72" as="targetPoint" />
          </mxGeometry>
        </mxCell>
        <mxCell id="jDWw7P72Rg6iwjJru3dq-125" value="" style="endArrow=none;html=1;rounded=0;" parent="1" edge="1">
          <mxGeometry width="50" height="50" relative="1" as="geometry">
            <mxPoint x="60" y="681.22" as="sourcePoint" />
            <mxPoint x="60" y="320" as="targetPoint" />
          </mxGeometry>
        </mxCell>
        <mxCell id="jDWw7P72Rg6iwjJru3dq-128" value="" style="endArrow=none;html=1;rounded=0;" parent="1" edge="1">
          <mxGeometry width="50" height="50" relative="1" as="geometry">
            <mxPoint x="-20" y="681.22" as="sourcePoint" />
            <mxPoint x="60" y="681.22" as="targetPoint" />
          </mxGeometry>
        </mxCell>
        <mxCell id="jDWw7P72Rg6iwjJru3dq-129" value="&lt;font style=&quot;font-size: 9px;&quot;&gt;main&lt;br&gt;{args,arr[1,2,3,4,5]}&lt;br&gt;&lt;/font&gt;" style="text;html=1;strokeColor=none;fillColor=none;align=center;verticalAlign=middle;whiteSpace=wrap;rounded=0;" parent="1" vertex="1">
          <mxGeometry x="-20" y="651.22" width="80" height="30" as="geometry" />
        </mxCell>
        <mxCell id="jDWw7P72Rg6iwjJru3dq-152" value="" style="endArrow=none;html=1;rounded=0;" parent="1" edge="1">
          <mxGeometry width="50" height="50" relative="1" as="geometry">
            <mxPoint x="160" y="680" as="sourcePoint" />
            <mxPoint x="160" y="320" as="targetPoint" />
          </mxGeometry>
        </mxCell>
        <mxCell id="jDWw7P72Rg6iwjJru3dq-153" value="" style="endArrow=none;html=1;rounded=0;" parent="1" edge="1">
          <mxGeometry width="50" height="50" relative="1" as="geometry">
            <mxPoint x="160" y="639.5" as="sourcePoint" />
            <mxPoint x="240" y="639.5" as="targetPoint" />
          </mxGeometry>
        </mxCell>
        <mxCell id="jDWw7P72Rg6iwjJru3dq-154" value="" style="endArrow=none;html=1;rounded=0;" parent="1" edge="1">
          <mxGeometry width="50" height="50" relative="1" as="geometry">
            <mxPoint x="240" y="680" as="sourcePoint" />
            <mxPoint x="240" y="320" as="targetPoint" />
          </mxGeometry>
        </mxCell>
        <mxCell id="jDWw7P72Rg6iwjJru3dq-155" value="" style="endArrow=none;html=1;rounded=0;" parent="1" edge="1">
          <mxGeometry width="50" height="50" relative="1" as="geometry">
            <mxPoint x="160" y="680" as="sourcePoint" />
            <mxPoint x="240" y="680" as="targetPoint" />
          </mxGeometry>
        </mxCell>
        <mxCell id="jDWw7P72Rg6iwjJru3dq-156" value="&lt;font style=&quot;font-size: 9px;&quot;&gt;main&lt;br&gt;String word&lt;/font&gt;" style="text;html=1;strokeColor=none;fillColor=none;align=center;verticalAlign=middle;whiteSpace=wrap;rounded=0;" parent="1" vertex="1">
          <mxGeometry x="160" y="650" width="80" height="30" as="geometry" />
        </mxCell>
        <mxCell id="jDWw7P72Rg6iwjJru3dq-157" value="" style="endArrow=none;html=1;rounded=0;" parent="1" edge="1">
          <mxGeometry width="50" height="50" relative="1" as="geometry">
            <mxPoint x="240" y="600" as="sourcePoint" />
            <mxPoint x="160" y="600" as="targetPoint" />
          </mxGeometry>
        </mxCell>
        <mxCell id="fsANTPJ_KKjaxKE2jrFM-1" value="" style="edgeStyle=orthogonalEdgeStyle;rounded=0;orthogonalLoop=1;jettySize=auto;html=1;entryX=0;entryY=0.5;entryDx=0;entryDy=0;" parent="1" source="jDWw7P72Rg6iwjJru3dq-158" target="fsANTPJ_KKjaxKE2jrFM-102" edge="1">
          <mxGeometry relative="1" as="geometry">
            <mxPoint x="320" y="623" as="targetPoint" />
          </mxGeometry>
        </mxCell>
        <mxCell id="jDWw7P72Rg6iwjJru3dq-158" value="function1()&lt;br&gt;arr[],i=4" style="text;html=1;strokeColor=none;fillColor=none;align=center;verticalAlign=middle;whiteSpace=wrap;rounded=0;" parent="1" vertex="1">
          <mxGeometry x="160" y="608.5" width="80" height="30" as="geometry" />
        </mxCell>
        <mxCell id="jDWw7P72Rg6iwjJru3dq-159" value="stack frame" style="text;html=1;strokeColor=none;fillColor=none;align=center;verticalAlign=middle;whiteSpace=wrap;rounded=0;" parent="1" vertex="1">
          <mxGeometry x="-100" y="645.04" width="60" height="30" as="geometry" />
        </mxCell>
        <mxCell id="fsANTPJ_KKjaxKE2jrFM-2" value="we&#39;re&amp;nbsp; in" style="text;html=1;strokeColor=none;fillColor=none;align=center;verticalAlign=middle;whiteSpace=wrap;rounded=0;" parent="1" vertex="1">
          <mxGeometry x="250" y="590" width="60" height="30" as="geometry" />
        </mxCell>
        <mxCell id="fsANTPJ_KKjaxKE2jrFM-3" value="loop" style="text;html=1;strokeColor=none;fillColor=none;align=center;verticalAlign=middle;whiteSpace=wrap;rounded=0;" parent="1" vertex="1">
          <mxGeometry x="250" y="630" width="60" height="30" as="geometry" />
        </mxCell>
        <mxCell id="fsANTPJ_KKjaxKE2jrFM-96" value="" style="endArrow=none;html=1;rounded=0;" parent="1" edge="1">
          <mxGeometry width="50" height="50" relative="1" as="geometry">
            <mxPoint x="344" y="680.39" as="sourcePoint" />
            <mxPoint x="340" y="320" as="targetPoint" />
          </mxGeometry>
        </mxCell>
        <mxCell id="fsANTPJ_KKjaxKE2jrFM-97" value="" style="endArrow=none;html=1;rounded=0;" parent="1" edge="1">
          <mxGeometry width="50" height="50" relative="1" as="geometry">
            <mxPoint x="344" y="639.89" as="sourcePoint" />
            <mxPoint x="424" y="639.89" as="targetPoint" />
          </mxGeometry>
        </mxCell>
        <mxCell id="fsANTPJ_KKjaxKE2jrFM-98" value="" style="endArrow=none;html=1;rounded=0;" parent="1" edge="1">
          <mxGeometry width="50" height="50" relative="1" as="geometry">
            <mxPoint x="424" y="680.39" as="sourcePoint" />
            <mxPoint x="420" y="320" as="targetPoint" />
          </mxGeometry>
        </mxCell>
        <mxCell id="fsANTPJ_KKjaxKE2jrFM-99" value="" style="endArrow=none;html=1;rounded=0;" parent="1" edge="1">
          <mxGeometry width="50" height="50" relative="1" as="geometry">
            <mxPoint x="344" y="680.39" as="sourcePoint" />
            <mxPoint x="424" y="680.39" as="targetPoint" />
          </mxGeometry>
        </mxCell>
        <mxCell id="fsANTPJ_KKjaxKE2jrFM-100" value="&lt;font style=&quot;font-size: 9px;&quot;&gt;main&lt;br&gt;String word&lt;/font&gt;" style="text;html=1;strokeColor=none;fillColor=none;align=center;verticalAlign=middle;whiteSpace=wrap;rounded=0;" parent="1" vertex="1">
          <mxGeometry x="344" y="650.39" width="80" height="30" as="geometry" />
        </mxCell>
        <mxCell id="fsANTPJ_KKjaxKE2jrFM-101" value="" style="endArrow=none;html=1;rounded=0;" parent="1" edge="1">
          <mxGeometry width="50" height="50" relative="1" as="geometry">
            <mxPoint x="424" y="600.39" as="sourcePoint" />
            <mxPoint x="344" y="600.39" as="targetPoint" />
          </mxGeometry>
        </mxCell>
        <mxCell id="fsANTPJ_KKjaxKE2jrFM-102" value="function1()&lt;br&gt;arr[],i=4" style="text;html=1;strokeColor=none;fillColor=none;align=center;verticalAlign=middle;whiteSpace=wrap;rounded=0;" parent="1" vertex="1">
          <mxGeometry x="344" y="608.89" width="80" height="30" as="geometry" />
        </mxCell>
        <mxCell id="fsANTPJ_KKjaxKE2jrFM-105" value="" style="endArrow=none;html=1;rounded=0;" parent="1" edge="1">
          <mxGeometry width="50" height="50" relative="1" as="geometry">
            <mxPoint x="344" y="560" as="sourcePoint" />
            <mxPoint x="424" y="560" as="targetPoint" />
          </mxGeometry>
        </mxCell>
        <mxCell id="fsANTPJ_KKjaxKE2jrFM-106" value="function1()&lt;br&gt;arr[],i=3" style="text;html=1;strokeColor=none;fillColor=none;align=center;verticalAlign=middle;whiteSpace=wrap;rounded=0;" parent="1" vertex="1">
          <mxGeometry x="345" y="570" width="80" height="30" as="geometry" />
        </mxCell>
        <mxCell id="fsANTPJ_KKjaxKE2jrFM-107" value="" style="endArrow=none;html=1;rounded=0;" parent="1" edge="1">
          <mxGeometry width="50" height="50" relative="1" as="geometry">
            <mxPoint x="500" y="679.56" as="sourcePoint" />
            <mxPoint x="500" y="320" as="targetPoint" />
          </mxGeometry>
        </mxCell>
        <mxCell id="fsANTPJ_KKjaxKE2jrFM-108" value="" style="endArrow=none;html=1;rounded=0;" parent="1" edge="1">
          <mxGeometry width="50" height="50" relative="1" as="geometry">
            <mxPoint x="500" y="639.06" as="sourcePoint" />
            <mxPoint x="580" y="639.06" as="targetPoint" />
          </mxGeometry>
        </mxCell>
        <mxCell id="fsANTPJ_KKjaxKE2jrFM-109" value="" style="endArrow=none;html=1;rounded=0;" parent="1" edge="1">
          <mxGeometry width="50" height="50" relative="1" as="geometry">
            <mxPoint x="580" y="679.56" as="sourcePoint" />
            <mxPoint x="580" y="320" as="targetPoint" />
          </mxGeometry>
        </mxCell>
        <mxCell id="fsANTPJ_KKjaxKE2jrFM-110" value="" style="endArrow=none;html=1;rounded=0;" parent="1" edge="1">
          <mxGeometry width="50" height="50" relative="1" as="geometry">
            <mxPoint x="500" y="679.56" as="sourcePoint" />
            <mxPoint x="580" y="679.56" as="targetPoint" />
          </mxGeometry>
        </mxCell>
        <mxCell id="fsANTPJ_KKjaxKE2jrFM-111" value="&lt;font style=&quot;font-size: 9px;&quot;&gt;main&lt;br&gt;String word&lt;/font&gt;" style="text;html=1;strokeColor=none;fillColor=none;align=center;verticalAlign=middle;whiteSpace=wrap;rounded=0;" parent="1" vertex="1">
          <mxGeometry x="500" y="649.56" width="80" height="30" as="geometry" />
        </mxCell>
        <mxCell id="fsANTPJ_KKjaxKE2jrFM-112" value="" style="endArrow=none;html=1;rounded=0;" parent="1" edge="1">
          <mxGeometry width="50" height="50" relative="1" as="geometry">
            <mxPoint x="580" y="599.56" as="sourcePoint" />
            <mxPoint x="500" y="599.56" as="targetPoint" />
          </mxGeometry>
        </mxCell>
        <mxCell id="fsANTPJ_KKjaxKE2jrFM-113" value="function1()&lt;br&gt;arr[],i=4" style="text;html=1;strokeColor=none;fillColor=none;align=center;verticalAlign=middle;whiteSpace=wrap;rounded=0;" parent="1" vertex="1">
          <mxGeometry x="500" y="608.06" width="80" height="30" as="geometry" />
        </mxCell>
        <mxCell id="fsANTPJ_KKjaxKE2jrFM-114" value="" style="endArrow=none;html=1;rounded=0;" parent="1" edge="1">
          <mxGeometry width="50" height="50" relative="1" as="geometry">
            <mxPoint x="500" y="559.17" as="sourcePoint" />
            <mxPoint x="580" y="559.17" as="targetPoint" />
          </mxGeometry>
        </mxCell>
        <mxCell id="fsANTPJ_KKjaxKE2jrFM-115" value="function1()&lt;br&gt;arr[],i=3" style="text;html=1;strokeColor=none;fillColor=none;align=center;verticalAlign=middle;whiteSpace=wrap;rounded=0;" parent="1" vertex="1">
          <mxGeometry x="501" y="569.17" width="80" height="30" as="geometry" />
        </mxCell>
        <mxCell id="fsANTPJ_KKjaxKE2jrFM-118" value="" style="endArrow=none;html=1;rounded=0;" parent="1" edge="1">
          <mxGeometry width="50" height="50" relative="1" as="geometry">
            <mxPoint x="500" y="520" as="sourcePoint" />
            <mxPoint x="580" y="520" as="targetPoint" />
          </mxGeometry>
        </mxCell>
        <mxCell id="fsANTPJ_KKjaxKE2jrFM-120" value="function1()&lt;br&gt;arr[],i=2" style="text;html=1;strokeColor=none;fillColor=none;align=center;verticalAlign=middle;whiteSpace=wrap;rounded=0;" parent="1" vertex="1">
          <mxGeometry x="500" y="524" width="80" height="30" as="geometry" />
        </mxCell>
        <mxCell id="fsANTPJ_KKjaxKE2jrFM-121" value="" style="endArrow=none;html=1;rounded=0;" parent="1" edge="1">
          <mxGeometry width="50" height="50" relative="1" as="geometry">
            <mxPoint x="647" y="678.5799999999999" as="sourcePoint" />
            <mxPoint x="647" y="320" as="targetPoint" />
          </mxGeometry>
        </mxCell>
        <mxCell id="fsANTPJ_KKjaxKE2jrFM-122" value="" style="endArrow=none;html=1;rounded=0;" parent="1" edge="1">
          <mxGeometry width="50" height="50" relative="1" as="geometry">
            <mxPoint x="647" y="638.0799999999999" as="sourcePoint" />
            <mxPoint x="727" y="638.0799999999999" as="targetPoint" />
          </mxGeometry>
        </mxCell>
        <mxCell id="fsANTPJ_KKjaxKE2jrFM-123" value="" style="endArrow=none;html=1;rounded=0;" parent="1" edge="1">
          <mxGeometry width="50" height="50" relative="1" as="geometry">
            <mxPoint x="727" y="678.5799999999999" as="sourcePoint" />
            <mxPoint x="727" y="320" as="targetPoint" />
          </mxGeometry>
        </mxCell>
        <mxCell id="fsANTPJ_KKjaxKE2jrFM-124" value="" style="endArrow=none;html=1;rounded=0;" parent="1" edge="1">
          <mxGeometry width="50" height="50" relative="1" as="geometry">
            <mxPoint x="647" y="678.5799999999999" as="sourcePoint" />
            <mxPoint x="727" y="678.5799999999999" as="targetPoint" />
          </mxGeometry>
        </mxCell>
        <mxCell id="fsANTPJ_KKjaxKE2jrFM-125" value="&lt;font style=&quot;font-size: 9px;&quot;&gt;main&lt;br&gt;String word&lt;/font&gt;" style="text;html=1;strokeColor=none;fillColor=none;align=center;verticalAlign=middle;whiteSpace=wrap;rounded=0;" parent="1" vertex="1">
          <mxGeometry x="647" y="648.5799999999999" width="80" height="30" as="geometry" />
        </mxCell>
        <mxCell id="fsANTPJ_KKjaxKE2jrFM-126" value="" style="endArrow=none;html=1;rounded=0;" parent="1" edge="1">
          <mxGeometry width="50" height="50" relative="1" as="geometry">
            <mxPoint x="727" y="598.5799999999999" as="sourcePoint" />
            <mxPoint x="647" y="598.5799999999999" as="targetPoint" />
          </mxGeometry>
        </mxCell>
        <mxCell id="fsANTPJ_KKjaxKE2jrFM-127" value="function1()&lt;br&gt;arr[],i=4" style="text;html=1;strokeColor=none;fillColor=none;align=center;verticalAlign=middle;whiteSpace=wrap;rounded=0;" parent="1" vertex="1">
          <mxGeometry x="647" y="607.0799999999999" width="80" height="30" as="geometry" />
        </mxCell>
        <mxCell id="fsANTPJ_KKjaxKE2jrFM-128" value="" style="endArrow=none;html=1;rounded=0;" parent="1" edge="1">
          <mxGeometry width="50" height="50" relative="1" as="geometry">
            <mxPoint x="647" y="558.1899999999999" as="sourcePoint" />
            <mxPoint x="727" y="558.1899999999999" as="targetPoint" />
          </mxGeometry>
        </mxCell>
        <mxCell id="fsANTPJ_KKjaxKE2jrFM-129" value="function1()&lt;br&gt;arr[],i=3" style="text;html=1;strokeColor=none;fillColor=none;align=center;verticalAlign=middle;whiteSpace=wrap;rounded=0;" parent="1" vertex="1">
          <mxGeometry x="648" y="568.1899999999999" width="80" height="30" as="geometry" />
        </mxCell>
        <mxCell id="fsANTPJ_KKjaxKE2jrFM-130" value="" style="endArrow=none;html=1;rounded=0;" parent="1" edge="1">
          <mxGeometry width="50" height="50" relative="1" as="geometry">
            <mxPoint x="647" y="519.02" as="sourcePoint" />
            <mxPoint x="727" y="519.02" as="targetPoint" />
          </mxGeometry>
        </mxCell>
        <mxCell id="fsANTPJ_KKjaxKE2jrFM-131" value="function1()&lt;br&gt;arr[],i=2" style="text;html=1;strokeColor=none;fillColor=none;align=center;verticalAlign=middle;whiteSpace=wrap;rounded=0;" parent="1" vertex="1">
          <mxGeometry x="647" y="523.02" width="80" height="30" as="geometry" />
        </mxCell>
        <mxCell id="fsANTPJ_KKjaxKE2jrFM-132" value="" style="endArrow=none;html=1;rounded=0;" parent="1" edge="1">
          <mxGeometry width="50" height="50" relative="1" as="geometry">
            <mxPoint x="727" y="480" as="sourcePoint" />
            <mxPoint x="647" y="480" as="targetPoint" />
          </mxGeometry>
        </mxCell>
        <mxCell id="fsANTPJ_KKjaxKE2jrFM-133" value="function1()&lt;br&gt;arr[],i=1" style="text;html=1;strokeColor=none;fillColor=none;align=center;verticalAlign=middle;whiteSpace=wrap;rounded=0;" parent="1" vertex="1">
          <mxGeometry x="647" y="480" width="80" height="30" as="geometry" />
        </mxCell>
        <mxCell id="fsANTPJ_KKjaxKE2jrFM-135" value="" style="endArrow=none;html=1;rounded=0;" parent="1" edge="1">
          <mxGeometry width="50" height="50" relative="1" as="geometry">
            <mxPoint x="797" y="677.7499999999999" as="sourcePoint" />
            <mxPoint x="797" y="320" as="targetPoint" />
          </mxGeometry>
        </mxCell>
        <mxCell id="fsANTPJ_KKjaxKE2jrFM-136" value="" style="endArrow=none;html=1;rounded=0;" parent="1" edge="1">
          <mxGeometry width="50" height="50" relative="1" as="geometry">
            <mxPoint x="797" y="637.2499999999999" as="sourcePoint" />
            <mxPoint x="877" y="637.2499999999999" as="targetPoint" />
          </mxGeometry>
        </mxCell>
        <mxCell id="fsANTPJ_KKjaxKE2jrFM-137" value="" style="endArrow=none;html=1;rounded=0;" parent="1" edge="1">
          <mxGeometry width="50" height="50" relative="1" as="geometry">
            <mxPoint x="877" y="677.7499999999999" as="sourcePoint" />
            <mxPoint x="880" y="320" as="targetPoint" />
          </mxGeometry>
        </mxCell>
        <mxCell id="fsANTPJ_KKjaxKE2jrFM-138" value="" style="endArrow=none;html=1;rounded=0;" parent="1" edge="1">
          <mxGeometry width="50" height="50" relative="1" as="geometry">
            <mxPoint x="797" y="677.7499999999999" as="sourcePoint" />
            <mxPoint x="877" y="677.7499999999999" as="targetPoint" />
          </mxGeometry>
        </mxCell>
        <mxCell id="fsANTPJ_KKjaxKE2jrFM-139" value="&lt;font style=&quot;font-size: 9px;&quot;&gt;main&lt;br&gt;String word&lt;/font&gt;" style="text;html=1;strokeColor=none;fillColor=none;align=center;verticalAlign=middle;whiteSpace=wrap;rounded=0;" parent="1" vertex="1">
          <mxGeometry x="797" y="647.7499999999999" width="80" height="30" as="geometry" />
        </mxCell>
        <mxCell id="fsANTPJ_KKjaxKE2jrFM-140" value="" style="endArrow=none;html=1;rounded=0;" parent="1" edge="1">
          <mxGeometry width="50" height="50" relative="1" as="geometry">
            <mxPoint x="877" y="597.7499999999999" as="sourcePoint" />
            <mxPoint x="797" y="597.7499999999999" as="targetPoint" />
          </mxGeometry>
        </mxCell>
        <mxCell id="fsANTPJ_KKjaxKE2jrFM-141" value="function1()&lt;br&gt;arr[],i=4" style="text;html=1;strokeColor=none;fillColor=none;align=center;verticalAlign=middle;whiteSpace=wrap;rounded=0;" parent="1" vertex="1">
          <mxGeometry x="797" y="606.2499999999999" width="80" height="30" as="geometry" />
        </mxCell>
        <mxCell id="fsANTPJ_KKjaxKE2jrFM-142" value="" style="endArrow=none;html=1;rounded=0;" parent="1" edge="1">
          <mxGeometry width="50" height="50" relative="1" as="geometry">
            <mxPoint x="797" y="557.3599999999999" as="sourcePoint" />
            <mxPoint x="877" y="557.3599999999999" as="targetPoint" />
          </mxGeometry>
        </mxCell>
        <mxCell id="fsANTPJ_KKjaxKE2jrFM-143" value="function1()&lt;br&gt;arr[],i=3" style="text;html=1;strokeColor=none;fillColor=none;align=center;verticalAlign=middle;whiteSpace=wrap;rounded=0;" parent="1" vertex="1">
          <mxGeometry x="798" y="567.3599999999999" width="80" height="30" as="geometry" />
        </mxCell>
        <mxCell id="fsANTPJ_KKjaxKE2jrFM-144" value="" style="endArrow=none;html=1;rounded=0;" parent="1" edge="1">
          <mxGeometry width="50" height="50" relative="1" as="geometry">
            <mxPoint x="797" y="518.1899999999999" as="sourcePoint" />
            <mxPoint x="877" y="518.1899999999999" as="targetPoint" />
          </mxGeometry>
        </mxCell>
        <mxCell id="fsANTPJ_KKjaxKE2jrFM-145" value="function1()&lt;br&gt;arr[],i=2" style="text;html=1;strokeColor=none;fillColor=none;align=center;verticalAlign=middle;whiteSpace=wrap;rounded=0;" parent="1" vertex="1">
          <mxGeometry x="797" y="522.1899999999999" width="80" height="30" as="geometry" />
        </mxCell>
        <mxCell id="fsANTPJ_KKjaxKE2jrFM-146" value="" style="endArrow=none;html=1;rounded=0;" parent="1" edge="1">
          <mxGeometry width="50" height="50" relative="1" as="geometry">
            <mxPoint x="877" y="479.17" as="sourcePoint" />
            <mxPoint x="797" y="479.17" as="targetPoint" />
          </mxGeometry>
        </mxCell>
        <mxCell id="fsANTPJ_KKjaxKE2jrFM-147" value="function1()&lt;br&gt;arr[],i=1" style="text;html=1;strokeColor=none;fillColor=none;align=center;verticalAlign=middle;whiteSpace=wrap;rounded=0;" parent="1" vertex="1">
          <mxGeometry x="797" y="479.17" width="80" height="30" as="geometry" />
        </mxCell>
        <mxCell id="fsANTPJ_KKjaxKE2jrFM-150" value="" style="endArrow=none;html=1;rounded=0;" parent="1" edge="1">
          <mxGeometry width="50" height="50" relative="1" as="geometry">
            <mxPoint x="797" y="440" as="sourcePoint" />
            <mxPoint x="877" y="440" as="targetPoint" />
          </mxGeometry>
        </mxCell>
        <mxCell id="fsANTPJ_KKjaxKE2jrFM-151" value="function1()&lt;br&gt;arr[],i=0" style="text;html=1;strokeColor=none;fillColor=none;align=center;verticalAlign=middle;whiteSpace=wrap;rounded=0;" parent="1" vertex="1">
          <mxGeometry x="797" y="445" width="80" height="30" as="geometry" />
        </mxCell>
        <mxCell id="fsANTPJ_KKjaxKE2jrFM-152" value="" style="endArrow=none;html=1;rounded=0;" parent="1" edge="1">
          <mxGeometry width="50" height="50" relative="1" as="geometry">
            <mxPoint x="967" y="677.0399999999998" as="sourcePoint" />
            <mxPoint x="967" y="320" as="targetPoint" />
          </mxGeometry>
        </mxCell>
        <mxCell id="fsANTPJ_KKjaxKE2jrFM-153" value="" style="endArrow=none;html=1;rounded=0;" parent="1" edge="1">
          <mxGeometry width="50" height="50" relative="1" as="geometry">
            <mxPoint x="967" y="636.5399999999998" as="sourcePoint" />
            <mxPoint x="1047" y="636.5399999999998" as="targetPoint" />
          </mxGeometry>
        </mxCell>
        <mxCell id="fsANTPJ_KKjaxKE2jrFM-154" value="" style="endArrow=none;html=1;rounded=0;" parent="1" edge="1">
          <mxGeometry width="50" height="50" relative="1" as="geometry">
            <mxPoint x="1047" y="677.0399999999998" as="sourcePoint" />
            <mxPoint x="1047" y="320" as="targetPoint" />
          </mxGeometry>
        </mxCell>
        <mxCell id="fsANTPJ_KKjaxKE2jrFM-155" value="" style="endArrow=none;html=1;rounded=0;" parent="1" edge="1">
          <mxGeometry width="50" height="50" relative="1" as="geometry">
            <mxPoint x="967" y="677.0399999999998" as="sourcePoint" />
            <mxPoint x="1047" y="677.0399999999998" as="targetPoint" />
          </mxGeometry>
        </mxCell>
        <mxCell id="fsANTPJ_KKjaxKE2jrFM-156" value="&lt;font style=&quot;font-size: 9px;&quot;&gt;main&lt;br&gt;String word&lt;/font&gt;" style="text;html=1;strokeColor=none;fillColor=none;align=center;verticalAlign=middle;whiteSpace=wrap;rounded=0;" parent="1" vertex="1">
          <mxGeometry x="967" y="647.0399999999998" width="80" height="30" as="geometry" />
        </mxCell>
        <mxCell id="fsANTPJ_KKjaxKE2jrFM-157" value="" style="endArrow=none;html=1;rounded=0;" parent="1" edge="1">
          <mxGeometry width="50" height="50" relative="1" as="geometry">
            <mxPoint x="1047" y="597.0399999999998" as="sourcePoint" />
            <mxPoint x="967" y="597.0399999999998" as="targetPoint" />
          </mxGeometry>
        </mxCell>
        <mxCell id="fsANTPJ_KKjaxKE2jrFM-158" value="function1()&lt;br&gt;arr[],i=4" style="text;html=1;strokeColor=none;fillColor=none;align=center;verticalAlign=middle;whiteSpace=wrap;rounded=0;" parent="1" vertex="1">
          <mxGeometry x="967" y="605.5399999999998" width="80" height="30" as="geometry" />
        </mxCell>
        <mxCell id="fsANTPJ_KKjaxKE2jrFM-159" value="" style="endArrow=none;html=1;rounded=0;" parent="1" edge="1">
          <mxGeometry width="50" height="50" relative="1" as="geometry">
            <mxPoint x="967" y="556.6499999999999" as="sourcePoint" />
            <mxPoint x="1047" y="556.6499999999999" as="targetPoint" />
          </mxGeometry>
        </mxCell>
        <mxCell id="fsANTPJ_KKjaxKE2jrFM-160" value="function1()&lt;br&gt;arr[],i=3" style="text;html=1;strokeColor=none;fillColor=none;align=center;verticalAlign=middle;whiteSpace=wrap;rounded=0;" parent="1" vertex="1">
          <mxGeometry x="968" y="566.6499999999999" width="80" height="30" as="geometry" />
        </mxCell>
        <mxCell id="fsANTPJ_KKjaxKE2jrFM-161" value="" style="endArrow=none;html=1;rounded=0;" parent="1" edge="1">
          <mxGeometry width="50" height="50" relative="1" as="geometry">
            <mxPoint x="967" y="517.4799999999999" as="sourcePoint" />
            <mxPoint x="1047" y="517.4799999999999" as="targetPoint" />
          </mxGeometry>
        </mxCell>
        <mxCell id="fsANTPJ_KKjaxKE2jrFM-162" value="function1()&lt;br&gt;arr[],i=2" style="text;html=1;strokeColor=none;fillColor=none;align=center;verticalAlign=middle;whiteSpace=wrap;rounded=0;" parent="1" vertex="1">
          <mxGeometry x="967" y="521.4799999999999" width="80" height="30" as="geometry" />
        </mxCell>
        <mxCell id="fsANTPJ_KKjaxKE2jrFM-163" value="" style="endArrow=none;html=1;rounded=0;" parent="1" edge="1">
          <mxGeometry width="50" height="50" relative="1" as="geometry">
            <mxPoint x="1047" y="478.46000000000004" as="sourcePoint" />
            <mxPoint x="967" y="478.46000000000004" as="targetPoint" />
          </mxGeometry>
        </mxCell>
        <mxCell id="fsANTPJ_KKjaxKE2jrFM-164" value="function1()&lt;br&gt;arr[],i=1" style="text;html=1;strokeColor=none;fillColor=none;align=center;verticalAlign=middle;whiteSpace=wrap;rounded=0;" parent="1" vertex="1">
          <mxGeometry x="967" y="478.46000000000004" width="80" height="30" as="geometry" />
        </mxCell>
        <mxCell id="fsANTPJ_KKjaxKE2jrFM-166" value="" style="endArrow=none;html=1;rounded=0;" parent="1" edge="1">
          <mxGeometry width="50" height="50" relative="1" as="geometry">
            <mxPoint x="967" y="439.29" as="sourcePoint" />
            <mxPoint x="1047" y="439.29" as="targetPoint" />
          </mxGeometry>
        </mxCell>
        <mxCell id="fsANTPJ_KKjaxKE2jrFM-167" value="function1()&lt;br&gt;arr[],i=0" style="text;html=1;strokeColor=none;fillColor=none;align=center;verticalAlign=middle;whiteSpace=wrap;rounded=0;" parent="1" vertex="1">
          <mxGeometry x="967" y="444.29" width="80" height="30" as="geometry" />
        </mxCell>
        <mxCell id="fsANTPJ_KKjaxKE2jrFM-168" value="" style="endArrow=none;html=1;rounded=0;" parent="1" edge="1">
          <mxGeometry width="50" height="50" relative="1" as="geometry">
            <mxPoint x="967" y="400" as="sourcePoint" />
            <mxPoint x="1047" y="400" as="targetPoint" />
          </mxGeometry>
        </mxCell>
        <mxCell id="fsANTPJ_KKjaxKE2jrFM-170" value="" style="endArrow=none;html=1;rounded=0;" parent="1" edge="1">
          <mxGeometry width="50" height="50" relative="1" as="geometry">
            <mxPoint x="1137" y="679.7799999999999" as="sourcePoint" />
            <mxPoint x="1137" y="320" as="targetPoint" />
          </mxGeometry>
        </mxCell>
        <mxCell id="fsANTPJ_KKjaxKE2jrFM-171" value="" style="endArrow=none;html=1;rounded=0;" parent="1" edge="1">
          <mxGeometry width="50" height="50" relative="1" as="geometry">
            <mxPoint x="1137" y="639.2799999999999" as="sourcePoint" />
            <mxPoint x="1217" y="639.2799999999999" as="targetPoint" />
          </mxGeometry>
        </mxCell>
        <mxCell id="fsANTPJ_KKjaxKE2jrFM-172" value="" style="endArrow=none;html=1;rounded=0;" parent="1" edge="1">
          <mxGeometry width="50" height="50" relative="1" as="geometry">
            <mxPoint x="1217" y="679.7799999999999" as="sourcePoint" />
            <mxPoint x="1217" y="320" as="targetPoint" />
          </mxGeometry>
        </mxCell>
        <mxCell id="fsANTPJ_KKjaxKE2jrFM-173" value="" style="endArrow=none;html=1;rounded=0;" parent="1" edge="1">
          <mxGeometry width="50" height="50" relative="1" as="geometry">
            <mxPoint x="1137" y="679.7799999999999" as="sourcePoint" />
            <mxPoint x="1217" y="679.7799999999999" as="targetPoint" />
          </mxGeometry>
        </mxCell>
        <mxCell id="fsANTPJ_KKjaxKE2jrFM-174" value="&lt;font style=&quot;font-size: 9px;&quot;&gt;main&lt;br&gt;String word&lt;/font&gt;" style="text;html=1;strokeColor=none;fillColor=none;align=center;verticalAlign=middle;whiteSpace=wrap;rounded=0;" parent="1" vertex="1">
          <mxGeometry x="1137" y="649.7799999999999" width="80" height="30" as="geometry" />
        </mxCell>
        <mxCell id="fsANTPJ_KKjaxKE2jrFM-175" value="" style="endArrow=none;html=1;rounded=0;" parent="1" edge="1">
          <mxGeometry width="50" height="50" relative="1" as="geometry">
            <mxPoint x="1217" y="599.7799999999999" as="sourcePoint" />
            <mxPoint x="1137" y="599.7799999999999" as="targetPoint" />
          </mxGeometry>
        </mxCell>
        <mxCell id="fsANTPJ_KKjaxKE2jrFM-176" value="function1()&lt;br&gt;arr[],i=4" style="text;html=1;strokeColor=none;fillColor=none;align=center;verticalAlign=middle;whiteSpace=wrap;rounded=0;" parent="1" vertex="1">
          <mxGeometry x="1137" y="608.2799999999999" width="80" height="30" as="geometry" />
        </mxCell>
        <mxCell id="fsANTPJ_KKjaxKE2jrFM-177" value="" style="endArrow=none;html=1;rounded=0;" parent="1" edge="1">
          <mxGeometry width="50" height="50" relative="1" as="geometry">
            <mxPoint x="1137" y="559.3899999999999" as="sourcePoint" />
            <mxPoint x="1217" y="559.3899999999999" as="targetPoint" />
          </mxGeometry>
        </mxCell>
        <mxCell id="fsANTPJ_KKjaxKE2jrFM-178" value="function1()&lt;br&gt;arr[],i=3" style="text;html=1;strokeColor=none;fillColor=none;align=center;verticalAlign=middle;whiteSpace=wrap;rounded=0;" parent="1" vertex="1">
          <mxGeometry x="1138" y="569.3899999999999" width="80" height="30" as="geometry" />
        </mxCell>
        <mxCell id="fsANTPJ_KKjaxKE2jrFM-179" value="" style="endArrow=none;html=1;rounded=0;" parent="1" edge="1">
          <mxGeometry width="50" height="50" relative="1" as="geometry">
            <mxPoint x="1137" y="520.2199999999999" as="sourcePoint" />
            <mxPoint x="1217" y="520.2199999999999" as="targetPoint" />
          </mxGeometry>
        </mxCell>
        <mxCell id="fsANTPJ_KKjaxKE2jrFM-180" value="function1()&lt;br&gt;arr[],i=2" style="text;html=1;strokeColor=none;fillColor=none;align=center;verticalAlign=middle;whiteSpace=wrap;rounded=0;" parent="1" vertex="1">
          <mxGeometry x="1137" y="524.2199999999999" width="80" height="30" as="geometry" />
        </mxCell>
        <mxCell id="fsANTPJ_KKjaxKE2jrFM-181" value="" style="endArrow=none;html=1;rounded=0;" parent="1" edge="1">
          <mxGeometry width="50" height="50" relative="1" as="geometry">
            <mxPoint x="1217" y="481.20000000000005" as="sourcePoint" />
            <mxPoint x="1137" y="481.20000000000005" as="targetPoint" />
          </mxGeometry>
        </mxCell>
        <mxCell id="fsANTPJ_KKjaxKE2jrFM-182" value="function1()&lt;br&gt;arr[],i=1" style="text;html=1;strokeColor=none;fillColor=none;align=center;verticalAlign=middle;whiteSpace=wrap;rounded=0;" parent="1" vertex="1">
          <mxGeometry x="1137" y="481.20000000000005" width="80" height="30" as="geometry" />
        </mxCell>
        <mxCell id="fsANTPJ_KKjaxKE2jrFM-184" value="" style="endArrow=none;html=1;rounded=0;" parent="1" edge="1">
          <mxGeometry width="50" height="50" relative="1" as="geometry">
            <mxPoint x="1137" y="442.03000000000003" as="sourcePoint" />
            <mxPoint x="1217" y="442.03000000000003" as="targetPoint" />
          </mxGeometry>
        </mxCell>
        <mxCell id="fsANTPJ_KKjaxKE2jrFM-186" value="" style="endArrow=none;html=1;rounded=0;" parent="1" edge="1">
          <mxGeometry width="50" height="50" relative="1" as="geometry">
            <mxPoint x="1137" y="402.74" as="sourcePoint" />
            <mxPoint x="1217" y="402.74" as="targetPoint" />
          </mxGeometry>
        </mxCell>
        <mxCell id="fsANTPJ_KKjaxKE2jrFM-189" value="function2()&lt;br&gt;print&amp;nbsp;" style="text;html=1;strokeColor=none;fillColor=none;align=center;verticalAlign=middle;whiteSpace=wrap;rounded=0;" parent="1" vertex="1">
          <mxGeometry x="972" y="402.74" width="70" height="40" as="geometry" />
        </mxCell>
        <mxCell id="fsANTPJ_KKjaxKE2jrFM-190" value="" style="endArrow=none;html=1;rounded=0;" parent="1" edge="1">
          <mxGeometry width="50" height="50" relative="1" as="geometry">
            <mxPoint x="1317" y="680.3499999999999" as="sourcePoint" />
            <mxPoint x="1317" y="320.57" as="targetPoint" />
          </mxGeometry>
        </mxCell>
        <mxCell id="fsANTPJ_KKjaxKE2jrFM-191" value="" style="endArrow=none;html=1;rounded=0;" parent="1" edge="1">
          <mxGeometry width="50" height="50" relative="1" as="geometry">
            <mxPoint x="1317" y="639.8499999999999" as="sourcePoint" />
            <mxPoint x="1397" y="639.8499999999999" as="targetPoint" />
          </mxGeometry>
        </mxCell>
        <mxCell id="fsANTPJ_KKjaxKE2jrFM-192" value="" style="endArrow=none;html=1;rounded=0;" parent="1" edge="1">
          <mxGeometry width="50" height="50" relative="1" as="geometry">
            <mxPoint x="1397" y="680.3499999999999" as="sourcePoint" />
            <mxPoint x="1397" y="320.57" as="targetPoint" />
          </mxGeometry>
        </mxCell>
        <mxCell id="fsANTPJ_KKjaxKE2jrFM-193" value="" style="endArrow=none;html=1;rounded=0;" parent="1" edge="1">
          <mxGeometry width="50" height="50" relative="1" as="geometry">
            <mxPoint x="1317" y="680.3499999999999" as="sourcePoint" />
            <mxPoint x="1397" y="680.3499999999999" as="targetPoint" />
          </mxGeometry>
        </mxCell>
        <mxCell id="fsANTPJ_KKjaxKE2jrFM-194" value="&lt;font style=&quot;font-size: 9px;&quot;&gt;main&lt;br&gt;String word&lt;/font&gt;" style="text;html=1;strokeColor=none;fillColor=none;align=center;verticalAlign=middle;whiteSpace=wrap;rounded=0;" parent="1" vertex="1">
          <mxGeometry x="1317" y="650.3499999999999" width="80" height="30" as="geometry" />
        </mxCell>
        <mxCell id="fsANTPJ_KKjaxKE2jrFM-195" value="" style="endArrow=none;html=1;rounded=0;" parent="1" edge="1">
          <mxGeometry width="50" height="50" relative="1" as="geometry">
            <mxPoint x="1397" y="600.3499999999999" as="sourcePoint" />
            <mxPoint x="1317" y="600.3499999999999" as="targetPoint" />
          </mxGeometry>
        </mxCell>
        <mxCell id="fsANTPJ_KKjaxKE2jrFM-196" value="function1()&lt;br&gt;arr[],i=4" style="text;html=1;strokeColor=none;fillColor=none;align=center;verticalAlign=middle;whiteSpace=wrap;rounded=0;" parent="1" vertex="1">
          <mxGeometry x="1317" y="608.8499999999999" width="80" height="30" as="geometry" />
        </mxCell>
        <mxCell id="fsANTPJ_KKjaxKE2jrFM-197" value="" style="endArrow=none;html=1;rounded=0;" parent="1" edge="1">
          <mxGeometry width="50" height="50" relative="1" as="geometry">
            <mxPoint x="1317" y="559.9599999999999" as="sourcePoint" />
            <mxPoint x="1397" y="559.9599999999999" as="targetPoint" />
          </mxGeometry>
        </mxCell>
        <mxCell id="fsANTPJ_KKjaxKE2jrFM-198" value="function1()&lt;br&gt;arr[],i=3" style="text;html=1;strokeColor=none;fillColor=none;align=center;verticalAlign=middle;whiteSpace=wrap;rounded=0;" parent="1" vertex="1">
          <mxGeometry x="1318" y="569.9599999999999" width="80" height="30" as="geometry" />
        </mxCell>
        <mxCell id="fsANTPJ_KKjaxKE2jrFM-199" value="" style="endArrow=none;html=1;rounded=0;" parent="1" edge="1">
          <mxGeometry width="50" height="50" relative="1" as="geometry">
            <mxPoint x="1317" y="520.79" as="sourcePoint" />
            <mxPoint x="1397" y="520.79" as="targetPoint" />
          </mxGeometry>
        </mxCell>
        <mxCell id="fsANTPJ_KKjaxKE2jrFM-200" value="function1()&lt;br&gt;arr[],i=2" style="text;html=1;strokeColor=none;fillColor=none;align=center;verticalAlign=middle;whiteSpace=wrap;rounded=0;" parent="1" vertex="1">
          <mxGeometry x="1317" y="524.79" width="80" height="30" as="geometry" />
        </mxCell>
        <mxCell id="fsANTPJ_KKjaxKE2jrFM-201" value="" style="endArrow=none;html=1;rounded=0;" parent="1" edge="1">
          <mxGeometry width="50" height="50" relative="1" as="geometry">
            <mxPoint x="1397" y="481.77000000000004" as="sourcePoint" />
            <mxPoint x="1317" y="481.77000000000004" as="targetPoint" />
          </mxGeometry>
        </mxCell>
        <mxCell id="fsANTPJ_KKjaxKE2jrFM-202" value="function1()&lt;br&gt;print arr[1]" style="text;html=1;strokeColor=none;fillColor=none;align=center;verticalAlign=middle;whiteSpace=wrap;rounded=0;" parent="1" vertex="1">
          <mxGeometry x="1317" y="481.77000000000004" width="80" height="30" as="geometry" />
        </mxCell>
        <mxCell id="fsANTPJ_KKjaxKE2jrFM-204" value="" style="endArrow=none;html=1;rounded=0;" parent="1" edge="1">
          <mxGeometry width="50" height="50" relative="1" as="geometry">
            <mxPoint x="1317" y="442.6" as="sourcePoint" />
            <mxPoint x="1397" y="442.6" as="targetPoint" />
          </mxGeometry>
        </mxCell>
        <mxCell id="fsANTPJ_KKjaxKE2jrFM-210" value="function1()&lt;br&gt;print arr[0]" style="text;html=1;strokeColor=none;fillColor=none;align=center;verticalAlign=middle;whiteSpace=wrap;rounded=0;" parent="1" vertex="1">
          <mxGeometry x="1138" y="445" width="80" height="30" as="geometry" />
        </mxCell>
        <mxCell id="fsANTPJ_KKjaxKE2jrFM-213" value="" style="endArrow=none;html=1;rounded=0;" parent="1" edge="1">
          <mxGeometry width="50" height="50" relative="1" as="geometry">
            <mxPoint x="1492" y="676.8799999999999" as="sourcePoint" />
            <mxPoint x="1492" y="317.09999999999997" as="targetPoint" />
          </mxGeometry>
        </mxCell>
        <mxCell id="fsANTPJ_KKjaxKE2jrFM-214" value="" style="endArrow=none;html=1;rounded=0;" parent="1" edge="1">
          <mxGeometry width="50" height="50" relative="1" as="geometry">
            <mxPoint x="1492" y="636.3799999999999" as="sourcePoint" />
            <mxPoint x="1572" y="636.3799999999999" as="targetPoint" />
          </mxGeometry>
        </mxCell>
        <mxCell id="fsANTPJ_KKjaxKE2jrFM-215" value="" style="endArrow=none;html=1;rounded=0;" parent="1" edge="1">
          <mxGeometry width="50" height="50" relative="1" as="geometry">
            <mxPoint x="1572" y="676.8799999999999" as="sourcePoint" />
            <mxPoint x="1572" y="317.09999999999997" as="targetPoint" />
          </mxGeometry>
        </mxCell>
        <mxCell id="fsANTPJ_KKjaxKE2jrFM-216" value="" style="endArrow=none;html=1;rounded=0;" parent="1" edge="1">
          <mxGeometry width="50" height="50" relative="1" as="geometry">
            <mxPoint x="1492" y="676.8799999999999" as="sourcePoint" />
            <mxPoint x="1572" y="676.8799999999999" as="targetPoint" />
          </mxGeometry>
        </mxCell>
        <mxCell id="fsANTPJ_KKjaxKE2jrFM-217" value="&lt;font style=&quot;font-size: 9px;&quot;&gt;main&lt;br&gt;String word&lt;/font&gt;" style="text;html=1;strokeColor=none;fillColor=none;align=center;verticalAlign=middle;whiteSpace=wrap;rounded=0;" parent="1" vertex="1">
          <mxGeometry x="1492" y="646.8799999999999" width="80" height="30" as="geometry" />
        </mxCell>
        <mxCell id="fsANTPJ_KKjaxKE2jrFM-218" value="" style="endArrow=none;html=1;rounded=0;" parent="1" edge="1">
          <mxGeometry width="50" height="50" relative="1" as="geometry">
            <mxPoint x="1572" y="596.8799999999999" as="sourcePoint" />
            <mxPoint x="1492" y="596.8799999999999" as="targetPoint" />
          </mxGeometry>
        </mxCell>
        <mxCell id="fsANTPJ_KKjaxKE2jrFM-219" value="function1()&lt;br&gt;arr[],i=4" style="text;html=1;strokeColor=none;fillColor=none;align=center;verticalAlign=middle;whiteSpace=wrap;rounded=0;" parent="1" vertex="1">
          <mxGeometry x="1492" y="605.3799999999999" width="80" height="30" as="geometry" />
        </mxCell>
        <mxCell id="fsANTPJ_KKjaxKE2jrFM-220" value="" style="endArrow=none;html=1;rounded=0;" parent="1" edge="1">
          <mxGeometry width="50" height="50" relative="1" as="geometry">
            <mxPoint x="1492" y="556.4899999999999" as="sourcePoint" />
            <mxPoint x="1572" y="556.4899999999999" as="targetPoint" />
          </mxGeometry>
        </mxCell>
        <mxCell id="fsANTPJ_KKjaxKE2jrFM-221" value="function1()&lt;br&gt;arr[],i=3" style="text;html=1;strokeColor=none;fillColor=none;align=center;verticalAlign=middle;whiteSpace=wrap;rounded=0;" parent="1" vertex="1">
          <mxGeometry x="1493" y="566.4899999999999" width="80" height="30" as="geometry" />
        </mxCell>
        <mxCell id="fsANTPJ_KKjaxKE2jrFM-222" value="" style="endArrow=none;html=1;rounded=0;" parent="1" edge="1">
          <mxGeometry width="50" height="50" relative="1" as="geometry">
            <mxPoint x="1492" y="517.3199999999999" as="sourcePoint" />
            <mxPoint x="1572" y="517.3199999999999" as="targetPoint" />
          </mxGeometry>
        </mxCell>
        <mxCell id="fsANTPJ_KKjaxKE2jrFM-223" value="function1()&lt;br&gt;print arr[2]" style="text;html=1;strokeColor=none;fillColor=none;align=center;verticalAlign=middle;whiteSpace=wrap;rounded=0;" parent="1" vertex="1">
          <mxGeometry x="1492" y="521.3199999999999" width="80" height="30" as="geometry" />
        </mxCell>
        <mxCell id="fsANTPJ_KKjaxKE2jrFM-224" value="" style="endArrow=none;html=1;rounded=0;" parent="1" edge="1">
          <mxGeometry width="50" height="50" relative="1" as="geometry">
            <mxPoint x="1572" y="478.3" as="sourcePoint" />
            <mxPoint x="1492" y="478.3" as="targetPoint" />
          </mxGeometry>
        </mxCell>
        <mxCell id="fsANTPJ_KKjaxKE2jrFM-226" value="" style="endArrow=none;html=1;rounded=0;" parent="1" edge="1">
          <mxGeometry width="50" height="50" relative="1" as="geometry">
            <mxPoint x="1492" y="439.13" as="sourcePoint" />
            <mxPoint x="1572" y="439.13" as="targetPoint" />
          </mxGeometry>
        </mxCell>
        <mxCell id="fsANTPJ_KKjaxKE2jrFM-228" value="" style="endArrow=none;html=1;rounded=0;" parent="1" edge="1">
          <mxGeometry width="50" height="50" relative="1" as="geometry">
            <mxPoint x="1652" y="681.2299999999999" as="sourcePoint" />
            <mxPoint x="1652" y="321.45" as="targetPoint" />
          </mxGeometry>
        </mxCell>
        <mxCell id="fsANTPJ_KKjaxKE2jrFM-229" value="" style="endArrow=none;html=1;rounded=0;" parent="1" edge="1">
          <mxGeometry width="50" height="50" relative="1" as="geometry">
            <mxPoint x="1652" y="640.7299999999999" as="sourcePoint" />
            <mxPoint x="1732" y="640.7299999999999" as="targetPoint" />
          </mxGeometry>
        </mxCell>
        <mxCell id="fsANTPJ_KKjaxKE2jrFM-230" value="" style="endArrow=none;html=1;rounded=0;" parent="1" edge="1">
          <mxGeometry width="50" height="50" relative="1" as="geometry">
            <mxPoint x="1732" y="681.2299999999999" as="sourcePoint" />
            <mxPoint x="1732" y="321.45" as="targetPoint" />
          </mxGeometry>
        </mxCell>
        <mxCell id="fsANTPJ_KKjaxKE2jrFM-231" value="" style="endArrow=none;html=1;rounded=0;" parent="1" edge="1">
          <mxGeometry width="50" height="50" relative="1" as="geometry">
            <mxPoint x="1652" y="681.2299999999999" as="sourcePoint" />
            <mxPoint x="1732" y="681.2299999999999" as="targetPoint" />
          </mxGeometry>
        </mxCell>
        <mxCell id="fsANTPJ_KKjaxKE2jrFM-232" value="&lt;font style=&quot;font-size: 9px;&quot;&gt;main&lt;br&gt;String word&lt;/font&gt;" style="text;html=1;strokeColor=none;fillColor=none;align=center;verticalAlign=middle;whiteSpace=wrap;rounded=0;" parent="1" vertex="1">
          <mxGeometry x="1652" y="651.2299999999999" width="80" height="30" as="geometry" />
        </mxCell>
        <mxCell id="fsANTPJ_KKjaxKE2jrFM-233" value="" style="endArrow=none;html=1;rounded=0;" parent="1" edge="1">
          <mxGeometry width="50" height="50" relative="1" as="geometry">
            <mxPoint x="1732" y="601.2299999999999" as="sourcePoint" />
            <mxPoint x="1652" y="601.2299999999999" as="targetPoint" />
          </mxGeometry>
        </mxCell>
        <mxCell id="fsANTPJ_KKjaxKE2jrFM-234" value="function1()&lt;br&gt;arr[],i=4" style="text;html=1;strokeColor=none;fillColor=none;align=center;verticalAlign=middle;whiteSpace=wrap;rounded=0;" parent="1" vertex="1">
          <mxGeometry x="1652" y="609.7299999999999" width="80" height="30" as="geometry" />
        </mxCell>
        <mxCell id="fsANTPJ_KKjaxKE2jrFM-235" value="" style="endArrow=none;html=1;rounded=0;" parent="1" edge="1">
          <mxGeometry width="50" height="50" relative="1" as="geometry">
            <mxPoint x="1652" y="560.8399999999999" as="sourcePoint" />
            <mxPoint x="1732" y="560.8399999999999" as="targetPoint" />
          </mxGeometry>
        </mxCell>
        <mxCell id="fsANTPJ_KKjaxKE2jrFM-236" value="function1()&lt;br&gt;print arr[3]" style="text;html=1;strokeColor=none;fillColor=none;align=center;verticalAlign=middle;whiteSpace=wrap;rounded=0;" parent="1" vertex="1">
          <mxGeometry x="1653" y="570.8399999999999" width="80" height="30" as="geometry" />
        </mxCell>
        <mxCell id="fsANTPJ_KKjaxKE2jrFM-237" value="" style="endArrow=none;html=1;rounded=0;" parent="1" edge="1">
          <mxGeometry width="50" height="50" relative="1" as="geometry">
            <mxPoint x="1652" y="521.67" as="sourcePoint" />
            <mxPoint x="1732" y="521.67" as="targetPoint" />
          </mxGeometry>
        </mxCell>
        <mxCell id="fsANTPJ_KKjaxKE2jrFM-242" value="" style="endArrow=none;html=1;rounded=0;" parent="1" edge="1">
          <mxGeometry width="50" height="50" relative="1" as="geometry">
            <mxPoint x="1822" y="680.3499999999999" as="sourcePoint" />
            <mxPoint x="1822" y="320.57" as="targetPoint" />
          </mxGeometry>
        </mxCell>
        <mxCell id="fsANTPJ_KKjaxKE2jrFM-243" value="" style="endArrow=none;html=1;rounded=0;" parent="1" edge="1">
          <mxGeometry width="50" height="50" relative="1" as="geometry">
            <mxPoint x="1822" y="639.8499999999999" as="sourcePoint" />
            <mxPoint x="1902" y="639.8499999999999" as="targetPoint" />
          </mxGeometry>
        </mxCell>
        <mxCell id="fsANTPJ_KKjaxKE2jrFM-244" value="" style="endArrow=none;html=1;rounded=0;" parent="1" edge="1">
          <mxGeometry width="50" height="50" relative="1" as="geometry">
            <mxPoint x="1902" y="680.3499999999999" as="sourcePoint" />
            <mxPoint x="1902" y="320.57" as="targetPoint" />
          </mxGeometry>
        </mxCell>
        <mxCell id="fsANTPJ_KKjaxKE2jrFM-245" value="" style="endArrow=none;html=1;rounded=0;" parent="1" edge="1">
          <mxGeometry width="50" height="50" relative="1" as="geometry">
            <mxPoint x="1822" y="680.3499999999999" as="sourcePoint" />
            <mxPoint x="1902" y="680.3499999999999" as="targetPoint" />
          </mxGeometry>
        </mxCell>
        <mxCell id="fsANTPJ_KKjaxKE2jrFM-246" value="&lt;font style=&quot;font-size: 9px;&quot;&gt;main&lt;br&gt;String word&lt;/font&gt;" style="text;html=1;strokeColor=none;fillColor=none;align=center;verticalAlign=middle;whiteSpace=wrap;rounded=0;" parent="1" vertex="1">
          <mxGeometry x="1822" y="650.3499999999999" width="80" height="30" as="geometry" />
        </mxCell>
        <mxCell id="fsANTPJ_KKjaxKE2jrFM-247" value="" style="endArrow=none;html=1;rounded=0;" parent="1" edge="1">
          <mxGeometry width="50" height="50" relative="1" as="geometry">
            <mxPoint x="1902" y="600.3499999999999" as="sourcePoint" />
            <mxPoint x="1822" y="600.3499999999999" as="targetPoint" />
          </mxGeometry>
        </mxCell>
        <mxCell id="fsANTPJ_KKjaxKE2jrFM-248" value="function1()&lt;br&gt;print arr[4]" style="text;html=1;strokeColor=none;fillColor=none;align=center;verticalAlign=middle;whiteSpace=wrap;rounded=0;" parent="1" vertex="1">
          <mxGeometry x="1822" y="608.8499999999999" width="80" height="30" as="geometry" />
        </mxCell>
        <mxCell id="fsANTPJ_KKjaxKE2jrFM-249" value="" style="endArrow=none;html=1;rounded=0;" parent="1" edge="1">
          <mxGeometry width="50" height="50" relative="1" as="geometry">
            <mxPoint x="1822" y="559.9599999999999" as="sourcePoint" />
            <mxPoint x="1902" y="559.9599999999999" as="targetPoint" />
          </mxGeometry>
        </mxCell>
        <mxCell id="fsANTPJ_KKjaxKE2jrFM-251" value="" style="endArrow=none;html=1;rounded=0;" parent="1" edge="1">
          <mxGeometry width="50" height="50" relative="1" as="geometry">
            <mxPoint x="1822" y="520.79" as="sourcePoint" />
            <mxPoint x="1902" y="520.79" as="targetPoint" />
          </mxGeometry>
        </mxCell>
        <mxCell id="fsANTPJ_KKjaxKE2jrFM-253" value="" style="endArrow=none;html=1;rounded=0;" parent="1" edge="1">
          <mxGeometry width="50" height="50" relative="1" as="geometry">
            <mxPoint x="1982" y="679.5199999999999" as="sourcePoint" />
            <mxPoint x="1982" y="319.74" as="targetPoint" />
          </mxGeometry>
        </mxCell>
        <mxCell id="fsANTPJ_KKjaxKE2jrFM-254" value="" style="endArrow=none;html=1;rounded=0;" parent="1" edge="1">
          <mxGeometry width="50" height="50" relative="1" as="geometry">
            <mxPoint x="1982" y="639.0199999999999" as="sourcePoint" />
            <mxPoint x="2062" y="639.0199999999999" as="targetPoint" />
          </mxGeometry>
        </mxCell>
        <mxCell id="fsANTPJ_KKjaxKE2jrFM-255" value="" style="endArrow=none;html=1;rounded=0;" parent="1" edge="1">
          <mxGeometry width="50" height="50" relative="1" as="geometry">
            <mxPoint x="2062" y="679.5199999999999" as="sourcePoint" />
            <mxPoint x="2062" y="319.74" as="targetPoint" />
          </mxGeometry>
        </mxCell>
        <mxCell id="fsANTPJ_KKjaxKE2jrFM-256" value="" style="endArrow=none;html=1;rounded=0;" parent="1" edge="1">
          <mxGeometry width="50" height="50" relative="1" as="geometry">
            <mxPoint x="1982" y="679.5199999999999" as="sourcePoint" />
            <mxPoint x="2062" y="679.5199999999999" as="targetPoint" />
          </mxGeometry>
        </mxCell>
        <mxCell id="fsANTPJ_KKjaxKE2jrFM-257" value="&lt;font style=&quot;font-size: 9px;&quot;&gt;main&lt;br&gt;String word&lt;/font&gt;" style="text;html=1;strokeColor=none;fillColor=none;align=center;verticalAlign=middle;whiteSpace=wrap;rounded=0;" parent="1" vertex="1">
          <mxGeometry x="1982" y="649.5199999999999" width="80" height="30" as="geometry" />
        </mxCell>
        <mxCell id="fsANTPJ_KKjaxKE2jrFM-258" value="" style="endArrow=none;html=1;rounded=0;" parent="1" edge="1">
          <mxGeometry width="50" height="50" relative="1" as="geometry">
            <mxPoint x="2062" y="599.5199999999999" as="sourcePoint" />
            <mxPoint x="1982" y="599.5199999999999" as="targetPoint" />
          </mxGeometry>
        </mxCell>
        <mxCell id="fsANTPJ_KKjaxKE2jrFM-259" value="&amp;nbsp;" style="text;html=1;strokeColor=none;fillColor=none;align=center;verticalAlign=middle;whiteSpace=wrap;rounded=0;" parent="1" vertex="1">
          <mxGeometry x="1982" y="608.0199999999999" width="80" height="30" as="geometry" />
        </mxCell>
        <mxCell id="fsANTPJ_KKjaxKE2jrFM-260" value="" style="endArrow=none;html=1;rounded=0;" parent="1" edge="1">
          <mxGeometry width="50" height="50" relative="1" as="geometry">
            <mxPoint x="1982" y="559.1299999999999" as="sourcePoint" />
            <mxPoint x="2062" y="559.1299999999999" as="targetPoint" />
          </mxGeometry>
        </mxCell>
        <mxCell id="fsANTPJ_KKjaxKE2jrFM-261" value="" style="endArrow=none;html=1;rounded=0;" parent="1" edge="1">
          <mxGeometry width="50" height="50" relative="1" as="geometry">
            <mxPoint x="1982" y="519.9599999999999" as="sourcePoint" />
            <mxPoint x="2062" y="519.9599999999999" as="targetPoint" />
          </mxGeometry>
        </mxCell>
        <mxCell id="fsANTPJ_KKjaxKE2jrFM-263" value="function2()&lt;br&gt;print&amp;nbsp;" style="text;html=1;strokeColor=none;fillColor=none;align=center;verticalAlign=middle;whiteSpace=wrap;rounded=0;" parent="1" vertex="1">
          <mxGeometry x="1987" y="599.73" width="70" height="40" as="geometry" />
        </mxCell>
        <mxCell id="fsANTPJ_KKjaxKE2jrFM-264" value="" style="endArrow=none;html=1;rounded=0;" parent="1" edge="1">
          <mxGeometry width="50" height="50" relative="1" as="geometry">
            <mxPoint x="2170" y="678.6499999999999" as="sourcePoint" />
            <mxPoint x="2170" y="318.87" as="targetPoint" />
          </mxGeometry>
        </mxCell>
        <mxCell id="fsANTPJ_KKjaxKE2jrFM-265" value="" style="endArrow=none;html=1;rounded=0;" parent="1" edge="1">
          <mxGeometry width="50" height="50" relative="1" as="geometry">
            <mxPoint x="2170" y="638.1499999999999" as="sourcePoint" />
            <mxPoint x="2250" y="638.1499999999999" as="targetPoint" />
          </mxGeometry>
        </mxCell>
        <mxCell id="fsANTPJ_KKjaxKE2jrFM-266" value="" style="endArrow=none;html=1;rounded=0;" parent="1" edge="1">
          <mxGeometry width="50" height="50" relative="1" as="geometry">
            <mxPoint x="2250" y="678.6499999999999" as="sourcePoint" />
            <mxPoint x="2250" y="318.87" as="targetPoint" />
          </mxGeometry>
        </mxCell>
        <mxCell id="fsANTPJ_KKjaxKE2jrFM-267" value="" style="endArrow=none;html=1;rounded=0;" parent="1" edge="1">
          <mxGeometry width="50" height="50" relative="1" as="geometry">
            <mxPoint x="2170" y="678.6499999999999" as="sourcePoint" />
            <mxPoint x="2250" y="678.6499999999999" as="targetPoint" />
          </mxGeometry>
        </mxCell>
        <mxCell id="fsANTPJ_KKjaxKE2jrFM-268" value="&lt;font style=&quot;font-size: 9px;&quot;&gt;main&lt;br&gt;String word&lt;/font&gt;" style="text;html=1;strokeColor=none;fillColor=none;align=center;verticalAlign=middle;whiteSpace=wrap;rounded=0;" parent="1" vertex="1">
          <mxGeometry x="2170" y="648.6499999999999" width="80" height="30" as="geometry" />
        </mxCell>
        <mxCell id="fsANTPJ_KKjaxKE2jrFM-269" value="" style="endArrow=none;html=1;rounded=0;" parent="1" edge="1">
          <mxGeometry width="50" height="50" relative="1" as="geometry">
            <mxPoint x="2250" y="598.6499999999999" as="sourcePoint" />
            <mxPoint x="2170" y="598.6499999999999" as="targetPoint" />
          </mxGeometry>
        </mxCell>
        <mxCell id="fsANTPJ_KKjaxKE2jrFM-270" value="&amp;nbsp;" style="text;html=1;strokeColor=none;fillColor=none;align=center;verticalAlign=middle;whiteSpace=wrap;rounded=0;" parent="1" vertex="1">
          <mxGeometry x="2170" y="607.1499999999999" width="80" height="30" as="geometry" />
        </mxCell>
        <mxCell id="fsANTPJ_KKjaxKE2jrFM-271" value="" style="endArrow=none;html=1;rounded=0;" parent="1" edge="1">
          <mxGeometry width="50" height="50" relative="1" as="geometry">
            <mxPoint x="2170" y="558.2599999999999" as="sourcePoint" />
            <mxPoint x="2250" y="558.2599999999999" as="targetPoint" />
          </mxGeometry>
        </mxCell>
        <mxCell id="fsANTPJ_KKjaxKE2jrFM-275" value="" style="endArrow=none;html=1;rounded=0;" parent="1" edge="1">
          <mxGeometry width="50" height="50" relative="1" as="geometry">
            <mxPoint x="2350" y="678.2699999999999" as="sourcePoint" />
            <mxPoint x="2350" y="318.49" as="targetPoint" />
          </mxGeometry>
        </mxCell>
        <mxCell id="fsANTPJ_KKjaxKE2jrFM-276" value="" style="endArrow=none;html=1;rounded=0;" parent="1" edge="1">
          <mxGeometry width="50" height="50" relative="1" as="geometry">
            <mxPoint x="2350" y="637.7699999999999" as="sourcePoint" />
            <mxPoint x="2430" y="637.7699999999999" as="targetPoint" />
          </mxGeometry>
        </mxCell>
        <mxCell id="fsANTPJ_KKjaxKE2jrFM-277" value="" style="endArrow=none;html=1;rounded=0;" parent="1" edge="1">
          <mxGeometry width="50" height="50" relative="1" as="geometry">
            <mxPoint x="2430" y="678.2699999999999" as="sourcePoint" />
            <mxPoint x="2430" y="318.49" as="targetPoint" />
          </mxGeometry>
        </mxCell>
        <mxCell id="fsANTPJ_KKjaxKE2jrFM-278" value="" style="endArrow=none;html=1;rounded=0;" parent="1" edge="1">
          <mxGeometry width="50" height="50" relative="1" as="geometry">
            <mxPoint x="2350" y="678.2699999999999" as="sourcePoint" />
            <mxPoint x="2430" y="678.2699999999999" as="targetPoint" />
          </mxGeometry>
        </mxCell>
        <mxCell id="fsANTPJ_KKjaxKE2jrFM-280" value="" style="endArrow=none;html=1;rounded=0;" parent="1" edge="1">
          <mxGeometry width="50" height="50" relative="1" as="geometry">
            <mxPoint x="2430" y="598.2699999999999" as="sourcePoint" />
            <mxPoint x="2350" y="598.2699999999999" as="targetPoint" />
          </mxGeometry>
        </mxCell>
        <mxCell id="fsANTPJ_KKjaxKE2jrFM-281" value="&amp;nbsp;" style="text;html=1;strokeColor=none;fillColor=none;align=center;verticalAlign=middle;whiteSpace=wrap;rounded=0;" parent="1" vertex="1">
          <mxGeometry x="2350" y="606.7699999999999" width="80" height="30" as="geometry" />
        </mxCell>
        <mxCell id="fsANTPJ_KKjaxKE2jrFM-284" value="&lt;font style=&quot;font-size: 72px;&quot;&gt;THE CALL STACK&lt;/font&gt;" style="text;html=1;strokeColor=none;fillColor=none;align=center;verticalAlign=middle;whiteSpace=wrap;rounded=0;" parent="1" vertex="1">
          <mxGeometry x="310" y="160" width="1510" height="110" as="geometry" />
        </mxCell>
      </root>
    </mxGraphModel>
  </diagram>
</mxfile>
